<?xml version="1.0" encoding="utf-8"?>
<!-- Generator: Adobe Illustrator 27.0.1, SVG Export Plug-In . SVG Version: 6.00 Build 0)  -->
<svg version="1.1" id="圖層_1" xmlns="http://www.w3.org/2000/svg"
	xmlns:xlink="http://www.w3.org/1999/xlink" x="0px" y="0px"
	viewBox="0 0 250 250" style="enable-background:new 0 0 250 250;" xml:space="preserve">
<path d="M146.47,101.88v31.74c0,0.8-0.62,1.43-1.43,1.43h-5.09c-0.49,0-0.94-0.27-1.16-0.58l-14.55-19.64v18.84
	c0,0.8-0.62,1.43-1.43,1.43h-5.09c-0.8,0-1.43-0.62-1.43-1.43v-31.74c0-0.8,0.62-1.43,1.43-1.43h5.04c0.45,0,0.94,0.22,1.16,0.62
	l14.55,19.64v-18.84c0-0.8,0.62-1.43,1.43-1.43H145C145.8,100.45,146.47,101.12,146.47,101.88L146.47,101.88z M109.87,100.45h-5.09
	c-0.8,0-1.43,0.62-1.43,1.43v31.74c0,0.8,0.62,1.43,1.43,1.43h5.09c0.8,0,1.43-0.62,1.43-1.43v-31.74
	C111.29,101.12,110.67,100.45,109.87,100.45L109.87,100.45z M97.59,127.05H83.71v-25.18c0-0.8-0.62-1.43-1.43-1.43h-5.09
	c-0.8,0-1.43,0.62-1.43,1.43v31.74c0,0.4,0.13,0.71,0.4,0.98c0.27,0.22,0.58,0.4,0.98,0.4h20.4c0.8,0,1.43-0.62,1.43-1.43v-5.09
	C98.97,127.72,98.35,127.05,97.59,127.05L97.59,127.05z M173.26,100.45h-20.4c-0.76,0-1.43,0.62-1.43,1.43v31.74
	c0,0.76,0.62,1.43,1.43,1.43h20.4c0.8,0,1.43-0.62,1.43-1.43v-5.09c0-0.8-0.62-1.43-1.43-1.43h-13.88v-5.36h13.88
	c0.8,0,1.43-0.62,1.43-1.43v-5.13c0-0.8-0.62-1.43-1.43-1.43h-13.88v-5.36h13.88c0.8,0,1.43-0.62,1.43-1.43v-5.09
	C174.64,101.12,174.02,100.45,173.26,100.45L173.26,100.45z M225,61.47v127.37c-0.04,20-16.43,36.21-36.47,36.16H61.16
	c-20-0.04-36.21-16.47-36.16-36.47V61.16c0.04-20,16.47-36.21,36.47-36.16h127.37C208.84,25.04,225.04,41.43,225,61.47z
	 M197.5,116.21c0-32.59-32.68-59.11-72.81-59.11s-72.81,26.52-72.81,59.11c0,29.2,25.89,53.66,60.89,58.3
	c8.53,1.83,7.54,4.96,5.62,16.43c-0.31,1.83-1.47,7.19,6.29,3.93s41.92-24.69,57.23-42.28C192.46,140.98,197.5,129.24,197.5,116.21z
	"/>
</svg>